<svg xmlns="http://www.w3.org/2000/svg" xmlns:xlink="http://www.w3.org/1999/xlink" viewBox="0 0 1920 1080"><defs><symbol id="h" viewBox="0 0 322.286 591.114"><path fill="#5db661" d="m.16199,4.44351C6.23817-1.46955,20.46196-.47721,28.61153,1.69185c9.764-1.16522,22.91216,160.34127,17.95782,191.04833-9.29765,3.20547-20.29801,4.88317-31.14502-.32206-.71622-.34373-1.19688-1.04253-1.28234-1.8324C9.68219,130.46275-1.47152,7.22315.16199,4.44351Z" class="color5ca4ff svgShape"/><path fill="#e5ffe6" d="m23.67237,195.7533l9.48788-.77793c3.35141,2.96124-1.13246,15.01192,14.72137,69.14104,4.32618,9.93167,9.91735,32.95921,29.91256,35.70741,0,0,1.90009,11.10599,1.53374,10.70385-14.13725,6.73274-32.71108-10.70385-42.37703-45.8614-7.53681-24.86864-10.04511-43.97064-13.27852-68.91296Z" class="colore5edff svgShape"/><path fill="#e5ffe6" d="m296.91921,308.83453l18.08732,277.46451c.17855,2.73896-2.1051,5.0037-4.84248,4.80238h0c-2.24912-.16541-4.0323-1.9632-4.17933-4.21361l-6.43205-98.44672H97.75296s-6.78508,96.80965-6.78508,96.80965c-.16449,2.3469-2.18114,4.12797-4.53038,4.00114h0c-2.39378-.12924-4.22228-2.17937-4.06795-4.57166,2.28114-35.36067,17.74686-275.03405,17.91341-275.8457.1796-.8763,18.19294-.8763,18.19294-.8763l-19.07293,169.82565,198.85283,1.41292-18.5042-171.24031,17.16763.87803Z" class="colore5edff svgShape"/><path fill="#5db661" d="m69.89313,326.94146c-4.08837,0-7.07225-3.86076-6.03811-7.81618,1.2831-4.90763,3.11845-11.24088,5.18863-16.29135,11.33027-27.6416,254.45352-8.11362,253.23765,9.48234-.80973,2.29744-2.00709,5.68995-3.04483,8.6293-1.26937,3.59543-4.66658,5.99589-8.4795,5.99589H69.89313Z" class="color5ca4ff svgShape"/></symbol><symbol id="d" viewBox="0 0 292.283 138.273"><path fill="#5db661" d="m2.3413,137.27307S.29285,123.26972.00033,123.26972c-.29221,0,194.40648,0,194.40648,0,0,0-2.52675,14.3089-2.4683,14.00335.05582-.30554-189.59721,0-189.59721,0Z" class="color5ca4ff svgShape"/><polygon fill="#27c12e" points="194.283 123.27 191.939 137.273 253.945 137.273 258.005 122.859 194.283 123.27" class="color3d27c1 svgShape"/><path fill="#eeffef" stroke="#1f231f" stroke-linecap="round" stroke-linejoin="round" stroke-width="2" d="m83.73647,122.85859L119.63281,9.49831c1.57835-4.98442,6.19202-8.3749,11.42036-8.3837,33.36941-.05614,150.64602-.23534,152.65357.01525,2.34337.29221,8.9514,5.33792,7.31997,8.78135-1.63139,3.44343-33.02142,115.42383-33.02142,114.1856s-174.26882-1.23823-174.26882-1.23823Z" class="colorffeef3 svgShape colorStroke231f20 svgStroke"/><path fill="#fff" d="m93.73647,117.04735L126.17369,14.61093c1.42626-4.5041,5.59533-7.56786,10.31985-7.57581,30.1538-.05073,136.12915-.21266,137.94326.01378,2.11755.26405,8.08881,4.82354,6.61459,7.93515-1.47418,3.11161-29.83934,104.30112-29.83934,103.18221s-157.47557-1.11891-157.47557-1.11891Z" class="colorffffff svgShape"/><line x1="194.407" x2="191.939" y1="123.27" y2="137.273" fill="none" stroke="#1f231f" stroke-linecap="round" stroke-linejoin="round" stroke-width="2" class="colorStroke231f20 svgStroke"/></symbol><symbol id="b" viewBox="0 0 163.034 177.382"><rect width="142.14" height="166.683" y="10.699" fill="#27c12e" class="color3d27c1 svgShape"/><path fill="#eeffef" d="m.00032,10.6988c-.0552,60.29031,6.98715,111.97623,16.55946,163.11551h146.47386c-16.27668-51.77732-23.2163-106.01923-19.33973-163.11551H.00032Z" class="colorffeef3 svgShape"/><path fill="none" stroke="#1f231f" stroke-miterlimit="10" stroke-width="1.488" d="m10.5783,10.6988C10.5783,5.20087,15.04021.74403,20.5444.74403s9.96606,4.45684,9.96606,9.95477-4.4619,9.95477-9.96606,9.95477" class="colorStroke231f20 svgStroke"/><path fill="none" stroke="#1f231f" stroke-miterlimit="10" stroke-width="1.488" d="m23.53807,10.6988c0-5.49793,4.4619-9.95477,9.96608-9.95477s9.96608,4.45684,9.96608,9.95477-4.4619,9.95477-9.96608,9.95477" class="colorStroke231f20 svgStroke"/><path fill="none" stroke="#1f231f" stroke-miterlimit="10" stroke-width="1.488" d="m36.49784,10.6988c0-5.49793,4.4619-9.95477,9.9661-9.95477s9.96606,4.45684,9.96606,9.95477-4.4619,9.95477-9.96606,9.95477" class="colorStroke231f20 svgStroke"/><path fill="none" stroke="#1f231f" stroke-miterlimit="10" stroke-width="1.488" d="m49.45761,10.6988c0-5.49793,4.4619-9.95477,9.96608-9.95477s9.96608,4.45684,9.96608,9.95477-4.4619,9.95477-9.96608,9.95477" class="colorStroke231f20 svgStroke"/><path fill="none" stroke="#1f231f" stroke-miterlimit="10" stroke-width="1.488" d="m62.41737,10.6988c0-5.49793,4.4619-9.95477,9.9661-9.95477s9.96606,4.45684,9.96606,9.95477-4.4619,9.95477-9.96606,9.95477" class="colorStroke231f20 svgStroke"/><path fill="none" stroke="#1f231f" stroke-miterlimit="10" stroke-width="1.488" d="m75.37714,10.6988c0-5.49793,4.4619-9.95477,9.96608-9.95477s9.96608,4.45684,9.96608,9.95477-4.4619,9.95477-9.96608,9.95477" class="colorStroke231f20 svgStroke"/><path fill="none" stroke="#1f231f" stroke-miterlimit="10" stroke-width="1.488" d="m88.33691,10.6988c0-5.49793,4.4619-9.95477,9.9661-9.95477s9.96606,4.45684,9.96606,9.95477-4.4619,9.95477-9.96606,9.95477" class="colorStroke231f20 svgStroke"/><path fill="none" stroke="#1f231f" stroke-miterlimit="10" stroke-width="1.488" d="m101.29668,10.6988c0-5.49793,4.4619-9.95477,9.96608-9.95477s9.96608,4.45684,9.96608,9.95477-4.4619,9.95477-9.96608,9.95477" class="colorStroke231f20 svgStroke"/><path fill="none" stroke="#1f231f" stroke-miterlimit="10" stroke-width="1.488" d="m114.25644,10.6988c0-5.49793,4.4619-9.95477,9.9661-9.95477s9.96606,4.45684,9.96606,9.95477-4.4619,9.95477-9.96606,9.95477" class="colorStroke231f20 svgStroke"/><rect width="122.09" height="18.822" x="11.338" y="27.233" fill="#61ff68" class="colorff6180 svgShape"/><path fill="#5db661" d="m146.33161,155.14252l-121.09037.30162c-8.18025-37.75401-12.85941-70.1926-11.51812-104.14521h117.87264c-.62546,29.65616,4.41027,64.42961,14.73585,103.84359Z" class="color5ca4ff svgShape"/><path fill="none" stroke="#fff" stroke-linecap="round" stroke-linejoin="round" stroke-width="1.488" d="m13.22427,73.7627h117.94761" class="colorStrokeffffff svgStroke"/><path fill="none" stroke="#fff" stroke-linecap="round" stroke-linejoin="round" stroke-width="1.488" d="m17.11265,97.59631h117.94761" class="colorStrokeffffff svgStroke"/><path fill="none" stroke="#fff" stroke-linecap="round" stroke-linejoin="round" stroke-width="1.488" d="m21.00072,121.42991h117.94761" class="colorStrokeffffff svgStroke"/><path fill="none" stroke="#fff" stroke-linecap="round" stroke-linejoin="round" stroke-width="1.488" d="m21.00072,144.18027h117.94761" class="colorStrokeffffff svgStroke"/><path fill="none" stroke="#fff" stroke-linecap="round" stroke-linejoin="round" stroke-width="1.488" d="m35.5332,52.94061c-3.14305,33.71496.58239,68.0544,10.88319,100.31402" class="colorStrokeffffff svgStroke"/><path fill="none" stroke="#fff" stroke-linecap="round" stroke-linejoin="round" stroke-width="1.488" d="m61.25113,52.94061c-3.14335,33.71496.58209,68.0544,10.8829,100.31402" class="colorStrokeffffff svgStroke"/><path fill="none" stroke="#fff" stroke-linecap="round" stroke-linejoin="round" stroke-width="1.488" d="m86.96876,52.94061c-3.14335,33.71496.58239,68.0544,10.88319,100.31402" class="colorStrokeffffff svgStroke"/><path fill="none" stroke="#fff" stroke-linecap="round" stroke-linejoin="round" stroke-width="1.488" d="m112.6864,52.94061c-3.14303,33.71496.58239,68.0544,10.88319,100.31402" class="colorStrokeffffff svgStroke"/><polyline fill="none" stroke="#231f20" stroke-linecap="round" stroke-linejoin="round" stroke-width="3.227" points="42.825 104.827 49.615 114.327 57.523 94.244"/><polyline fill="none" stroke="#231f20" stroke-linecap="round" stroke-linejoin="round" stroke-width="3.227" points="71.234 128.69 78.025 138.19 85.933 118.107"/><polyline fill="none" stroke="#231f20" stroke-linecap="round" stroke-linejoin="round" stroke-width="3.227" points="93.833 57.747 100.623 67.247 108.531 47.164"/></symbol><symbol id="a" viewBox="0 0 445.132 325.354"><rect width="445.132" height="325.354" fill="#e5ffe6" class="colore5edff svgShape" rx="19.09" ry="19.09"/><path fill="#5db661" d="m445.13229,29.15026v-10.0607c0-10.54286-8.5467-19.08956-19.08961-19.08956H19.08961C8.5467,0,0,8.5467,0,19.08956v10.0607h445.13229Z" class="color5ca4ff svgShape"/><rect width="43.044" height="11.688" x="33.771" y="9.848" fill="#27c12e" class="color3d27c1 svgShape" rx="5.844" ry="5.844"/><circle cx="22.848" cy="15.757" r="5.909" fill="#27c12e" class="color3d27c1 svgShape"/><path fill="#5db661" d="m416.39456,58.74647h-.56145v-.56168H29.03943v.56168h-.0703v186.41332h.0703v.56145h386.79368v-.56145h.56145V58.74647Zm-225.34352,83.41126h31.06924v19.59057h-31.06924v-19.59057Zm-1.12289,19.59057h-31.06829v-19.59057h31.06829v19.59057Zm33.31526-19.59057h31.06924v19.59057h-31.06924v-19.59057Zm32.19214,0h31.06806v19.59057h-31.06806v-19.59057Zm0-1.12289v-19.58962h31.06806v19.58962h-31.06806Zm-1.12289,0h-31.06924v-19.58962h31.06924v19.58962Zm-32.19237,0h-31.06924v-19.58962h31.06924v19.58962Zm-32.19213,0h-31.06829v-19.58962h31.06829v19.58962Zm-32.19118,0h-31.06924v-19.58962h31.06924v19.58962Zm0,1.12289v19.59057h-31.06924v-19.59057h31.06924Zm0,20.7137v19.58938h-31.06924v-19.58938h31.06924Zm1.12289,0h31.06829v19.58938h-31.06829v-19.58938Zm32.19118,0h31.06924v19.58938h-31.06924v-19.58938Zm32.19237,0h31.06924v19.58938h-31.06924v-19.58938Zm32.19214,0h31.06806v19.58938h-31.06806v-19.58938Zm32.19118,0h31.06924v19.58938h-31.06924v-19.58938Zm0-1.12313v-19.59057h31.06924v19.59057h-31.06924Zm0-20.71347v-19.58962h31.06924v19.58962h-31.06924Zm0-20.71251v-19.58962h31.06924v19.58962h-31.06924Zm-1.12312,0h-31.06806v-19.58962h31.06806v19.58962Zm-32.19095,0h-31.06924v-19.58962h31.06924v19.58962Zm-32.19237,0h-31.06924v-19.58962h31.06924v19.58962Zm-32.19213,0h-31.06829v-19.58962h31.06829v19.58962Zm-32.19118,0h-31.06924v-19.58962h31.06924v19.58962Zm-32.19214,0h-31.06924v-19.58962h31.06924v19.58962Zm0,1.12289v19.58962h-31.06924v-19.58962h31.06924Zm0,20.71251v19.59057h-31.06924v-19.59057h31.06924Zm0,20.7137v19.58938h-31.06924v-19.58938h31.06924Zm0,20.71227v19.58962h-31.06924v-19.58962h31.06924Zm1.12289,0h31.06924v19.58962h-31.06924v-19.58962Zm32.19214,0h31.06829v19.58962h-31.06829v-19.58962Zm32.19118,0h31.06924v19.58962h-31.06924v-19.58962Zm32.19237,0h31.06924v19.58962h-31.06924v-19.58962Zm32.19214,0h31.06806v19.58962h-31.06806v-19.58962Zm32.19118,0h31.06924v19.58962h-31.06924v-19.58962Zm32.19214,0h31.06924v19.58962h-31.06924v-19.58962Zm0-1.12289v-19.58938h31.06924v19.58938h-31.06924Zm0-20.71251v-19.59057h31.06924v19.59057h-31.06924Zm0-20.71347v-19.58962h31.06924v19.58962h-31.06924Zm0-20.71251v-19.58962h31.06924v19.58962h-31.06924Zm0-20.71251v-19.58938h31.06924v19.58938h-31.06924Zm-1.12289,0h-31.06924v-19.58938h31.06924v19.58938Zm-32.19237,0h-31.06806v-19.58938h31.06806v19.58938Zm-32.19095,0h-31.06924v-19.58938h31.06924v19.58938Zm-32.19237,0h-31.06924v-19.58938h31.06924v19.58938Zm-32.19213,0h-31.06829v-19.58938h31.06829v19.58938Zm-32.19118,0h-31.06924v-19.58938h31.06924v19.58938Zm-32.19214,0h-31.06924v-19.58938h31.06924v19.58938Zm-32.19238,0h-31.06805v-19.58938h31.06805v19.58938Zm0,1.12289v19.58962h-31.06805v-19.58962h31.06805Zm0,20.71251v19.58962h-31.06805v-19.58962h31.06805Zm0,20.71251v19.59057h-31.06805v-19.59057h31.06805Zm0,20.7137v19.58938h-31.06805v-19.58938h31.06805Zm0,20.71227v19.58962h-31.06805v-19.58962h31.06805Zm0,20.71251v19.58962h-31.06805v-19.58962h31.06805Zm1.12313,0h31.06924v19.58962h-31.06924v-19.58962Zm32.19214,0h31.06924v19.58962h-31.06924v-19.58962Zm32.19214,0h31.06829v19.58962h-31.06829v-19.58962Zm32.19118,0h31.06924v19.58962h-31.06924v-19.58962Zm32.19237,0h31.06924v19.58962h-31.06924v-19.58962Zm32.19214,0h31.06806v19.58962h-31.06806v-19.58962Zm32.19118,0h31.06924v19.58962h-31.06924v-19.58962Zm32.19214,0h31.06924v19.58962h-31.06924v-19.58962Zm32.19239,0h31.06804v19.58962h-31.06804v-19.58962Zm0-1.12289v-19.58962h31.06804v19.58962h-31.06804Zm0-20.71251v-19.58938h31.06804v19.58938h-31.06804Zm0-20.71251v-19.59057h31.06804v19.59057h-31.06804Zm0-20.71347v-19.58962h31.06804v19.58962h-31.06804Zm0-20.71251v-19.58962h31.06804v19.58962h-31.06804Zm0-20.71251v-19.58938h31.06804v19.58938h-31.06804Zm0-20.71251v-19.58938h31.06804v19.58938h-31.06804Zm-1.12314,0h-31.06924v-19.58938h31.06924v19.58938Zm-32.19214,0h-31.06924v-19.58938h31.06924v19.58938Zm-32.19237,0h-31.06806v-19.58938h31.06806v19.58938Zm-32.19095,0h-31.06924v-19.58938h31.06924v19.58938Zm-32.19237,0h-31.06924v-19.58938h31.06924v19.58938Zm-32.19213,0h-31.06829v-19.58938h31.06829v19.58938Zm-32.19118,0h-31.06924v-19.58938h31.06924v19.58938Zm-32.19214,0h-31.06924v-19.58938h31.06924v19.58938Zm-32.19238,0h-31.06805v-19.58938h31.06805v19.58938Zm-32.19118,0h-31.06924v-19.58938h31.06924v19.58938Zm0,1.12313v19.58938h-31.06924v-19.58938h31.06924Zm0,20.71227v19.58962h-31.06924v-19.58962h31.06924Zm0,20.71251v19.58962h-31.06924v-19.58962h31.06924Zm0,20.71251v19.59057h-31.06924v-19.59057h31.06924Zm0,20.7137v19.58938h-31.06924v-19.58938h31.06924Zm0,20.71227v19.58962h-31.06924v-19.58962h31.06924Zm0,20.71251v19.58962h-31.06924v-19.58962h31.06924Zm0,20.71251v19.58962h-31.06924v-19.58962h31.06924Zm1.12313,0h31.06805v19.58962h-31.06805v-19.58962Zm32.19118,0h31.06924v19.58962h-31.06924v-19.58962Zm32.19214,0h31.06924v19.58962h-31.06924v-19.58962Zm32.19214,0h31.06829v19.58962h-31.06829v-19.58962Zm32.19118,0h31.06924v19.58962h-31.06924v-19.58962Zm32.19237,0h31.06924v19.58962h-31.06924v-19.58962Zm32.19214,0h31.06806v19.58962h-31.06806v-19.58962Zm32.19118,0h31.06924v19.58962h-31.06924v-19.58962Zm32.19214,0h31.06924v19.58962h-31.06924v-19.58962Zm32.19239,0h31.06804v19.58962h-31.06804v-19.58962Zm32.19093,0h31.06924v19.58962h-31.06924v-19.58962Zm0-1.12289v-19.58962h31.06924v19.58962h-31.06924Zm0-20.71251v-19.58962h31.06924v19.58962h-31.06924Zm0-20.71251v-19.58938h31.06924v19.58938h-31.06924Zm0-20.71251v-19.59057h31.06924v19.59057h-31.06924Zm0-20.71347v-19.58962h31.06924v19.58962h-31.06924Zm0-20.71251v-19.58962h31.06924v19.58962h-31.06924Zm0-20.71251v-19.58938h31.06924v19.58938h-31.06924Zm0-20.71251v-19.58938h31.06924v19.58938h-31.06924Z" class="color5ca4ff svgShape"/><path fill="#fff" d="m415.36634,245.15979v-80.85401c-32.195,0-32.195,24.70531-64.38999,24.70531s-32.19476-98.07297-64.38975-98.07297c-32.19047,0-32.19047,98.07297-64.38094,98.07297s-32.19141-42.67279-64.38284-42.67279-32.18999,42.67279-64.37998,42.67279-32.18952-35.18644-64.37903-35.18644v91.33513h386.30254Z" class="colorffffff svgShape" opacity=".7"/><path fill="#27c12e" d="m415.80762,162.06738c-16.84029.00691-25.32633,6.51764-33.53308,12.81485-7.9682,6.11371-15.49459,11.88951-30.83189,11.88951-14.47536,0-22.4009-24.14529-30.06646-47.49537-8.1629-24.86593-16.60318-50.57808-34.3233-50.57808-17.71654,0-26.15611,25.71215-34.31782,50.57689-7.66412,23.35126-15.58967,47.49656-30.06312,47.49656-14.97961,0-22.47096-9.93112-30.40318-20.44585-8.24368-10.92747-16.76737-22.22742-33.97894-22.22742-17.21038,0-25.73503,11.29994-33.97776,22.22742-7.93103,10.51473-15.42238,20.44585-30.40199,20.44585-15.10877,0-22.60346-8.19245-30.53782-16.86484-8.16552-8.92523-16.61843-18.1393-33.39153-18.30587v4.47894c14.79993.16562,22.23433,8.26608,30.08719,16.84935,8.24035,9.00697,16.7607,18.32136,33.84216,18.32136,17.21014,0,25.73503-11.30018,33.97776-22.22742,7.93103-10.51473,15.42238-20.44585,30.40199-20.44585s22.4712,9.93112,30.40341,20.44585c8.24368,10.92723,16.76737,22.22742,33.97871,22.22742,17.71773,0,26.1573-25.71215,34.31901-50.57808,7.66412-23.35007,15.58872-47.49537,30.06193-47.49537,14.47559,0,22.40233,24.14529,30.06765,47.49656,8.1629,24.86474,16.60342,50.57689,34.32211,50.57689,16.85817,0,25.34802-6.51502,33.55905-12.81556,7.96344-6.11014,15.48672-11.88236,30.80592-11.88903v-4.4787Z" class="color3d27c1 svgShape"/><circle cx="287.486" cy="92.094" r="15.909" fill="#5db661" class="color5ca4ff svgShape"/><path fill="#61ff68" d="m294.77756,92.09438c0-4.02712-3.26455-7.29165-7.29166-7.29165-4.02688,0-7.29142,3.26454-7.29142,7.29165s3.26454,7.29165,7.29142,7.29165c4.02712,0,7.29166-3.26454,7.29166-7.29165Z" class="colorff6180 svgShape"/><circle cx="65.31" cy="267.45" r="3.968" fill="#27c12e" class="color3d27c1 svgShape"/><circle cx="65.543" cy="288.221" r="3.968" fill="#61ff68" class="colorff6180 svgShape"/><rect width="25.673" height="7.935" x="75.579" y="263.715" fill="#5db661" class="color5ca4ff svgShape" rx="3.968" ry="3.968"/><rect width="11.669" height="7.935" x="105.521" y="263.872" fill="#5db661" class="color5ca4ff svgShape" rx="3.968" ry="3.968"/><rect width="47.611" height="7.935" x="121.391" y="263.872" fill="#5db661" class="color5ca4ff svgShape" rx="3.968" ry="3.968"/><rect width="31.741" height="7.935" x="75.812" y="284.487" fill="#5db661" class="color5ca4ff svgShape" rx="3.968" ry="3.968"/><rect width="36.409" height="7.935" x="112.522" y="284.411" fill="#5db661" class="color5ca4ff svgShape" rx="3.968" ry="3.968"/><circle cx="225.881" cy="267.45" r="3.968" fill="#2eff37" class="colorffd12e svgShape"/><circle cx="226.115" cy="288.221" r="3.968" fill="#5db661" class="color5ca4ff svgShape"/><rect width="59.748" height="7.935" x="236.15" y="263.715" fill="#5db661" class="color5ca4ff svgShape" rx="3.968" ry="3.968"/><rect width="11.669" height="7.935" x="300.167" y="263.872" fill="#5db661" class="color5ca4ff svgShape" rx="3.968" ry="3.968"/><rect width="13.537" height="7.935" x="236.384" y="284.487" fill="#5db661" class="color5ca4ff svgShape" rx="3.968" ry="3.968"/><rect width="84.487" height="7.935" x="254.889" y="284.411" fill="#5db661" class="color5ca4ff svgShape" rx="3.968" ry="3.968"/></symbol><symbol id="c" viewBox="0 0 188.299 185.269"><path fill="#5db661" d="m182.72882,85.60383c-15.48223-10.21952-33.15992-6.12115-43.63746.05278-13.68587,4.71507-20.90387,26.20524-22.18242,26.43383-.18111-5.15597.68793-10.61372,8.49655-19.67301,30.32205-30.74195,33.53391-62.81149,1.54716-50.96377.04121-.15599.34514-.85413.3524-.89435,2.1676-6.48553,6.99863-15.14709,5.47443-23.98564-3.97926-22.80599-27.17199-22.11806-35.67501,3.40435-2.74349,7.87434-1.81205,17.48618-3.20813,25.3099-23.1272-29.60507-45.91751.67346-29.08314,30.81749-28.44033-19.73678-81.31349,7.39577-58.42921,32.21514,12.29941,7.11126,36.7699-15.39374,42.44172-14.18897.00569.0053.01256.00922.01844.01452-.16031.06985-.15187.07378.03218.02551,6.66016,1.50694,10.29624,4.25867,14.65047,11.71998,1.69668,2.90714,2.80765,8.3331,6.71961,7.34613,14.71699-.17287,45.61944.27196,45.61944.27196l15.5874-.58924s1.14669-.98363,3.44006-4.66268c2.86946-4.5267,8.12236-10.31704,13.25792-10.79894,1.41766-.03355,8.16494,2.79,11.81554,6.04718,12.46658,11.12349,40.12833-4.47019,22.76204-17.90216Z" class="color5ca4ff svgShape"/><path fill="none" stroke="#1f231f" stroke-linecap="round" stroke-linejoin="round" stroke-width="2" d="m91.97883,112.96137s-9-33-39.9105-42.43799C21.46705,61.17979-7.4305,88.11463,3.27416,105.538s44.37874-21.71971,69.5417-18.64817" class="colorStroke231f20 svgStroke"/><path fill="none" stroke="#1f231f" stroke-linecap="round" stroke-linejoin="round" stroke-width="2" d="m97.58367,114.19623s-5.46266-24.55351,6.46625-46.89419,26.18302-32.75673,41.51539-26.44822c12.41352,5.10755-5.36174,35.03671-10.47411,40.57213-5.11237,5.53542-20.33832,22.63202-19.22534,32.08372" class="colorStroke231f20 svgStroke"/><path fill="none" stroke="#1f231f" stroke-linecap="round" stroke-linejoin="round" stroke-width="2" d="m57.76629,89.22578s12.33737.73559,21.27495,23.73559" class="colorStroke231f20 svgStroke"/><path fill="none" stroke="#1f231f" stroke-linecap="round" stroke-linejoin="round" stroke-width="2" d="m44.97883,94.96137s12.09906-5,22.54953,19" class="colorStroke231f20 svgStroke"/><path fill="none" stroke="#1f231f" stroke-linecap="round" stroke-linejoin="round" stroke-width="2" d="m67.97883,35.96137s26.85721,43.84702,26.92861,77.42351" class="colorStroke231f20 svgStroke"/><path fill="none" stroke="#1f231f" stroke-linecap="round" stroke-linejoin="round" stroke-width="2" d="m116.97883,113.96137s7.2909-30.22687,42.14545-34.61344,35.63525,30.91753,10.85455,27.61344c-15-2-23.16515-23.03247-42.08258-5.51624" class="colorStroke231f20 svgStroke"/><path fill="none" stroke="#1f231f" stroke-linecap="round" stroke-linejoin="round" stroke-width="2" d="m104.154,114.19623s12.615-59.22722,42.21992-72.23104" class="colorStroke231f20 svgStroke"/><path fill="none" stroke="#1f231f" stroke-linecap="round" stroke-linejoin="round" stroke-width="2" d="m131.12106,114.03239s9.40436-17.03258,19.13106-16.5518" class="colorStroke231f20 svgStroke"/><path fill="#61ff68" d="m49.3345,111.74365c.29903.58865,6.63603,13.06033,6.63603,13.06033h5.90983s9.894,57.64571,10.10257,59.54352c.20877,1.898,48.92921.4356,49.72075-.57668s9.74958-58.96684,9.74958-58.96684h5.14949l6.63603-13.06033H49.3345Z" class="colorff6180 svgShape"/><line x1="61.88" x2="131.453" y1="124.804" y2="124.804" fill="none" stroke="#1f231f" stroke-linecap="round" stroke-linejoin="round" stroke-width="2" class="colorStroke231f20 svgStroke"/><path fill="none" stroke="#1f231f" stroke-linecap="round" stroke-linejoin="round" stroke-width="2" d="m94.5721,47.00088S91.68647-1.81302,118.82695,1.12773c26.15188,2.83364,8.1257,40.32592,8.1257,40.32592" class="colorStroke231f20 svgStroke"/><path fill="none" stroke="#1f231f" stroke-linecap="round" stroke-linejoin="round" stroke-width="2" d="m100.4527,72.74187s-1.5958-48.31552-31.42125-37.23219c-20.05262,7.45168-3.05262,41.45168-3.05262,41.45168" class="colorStroke231f20 svgStroke"/><path fill="none" stroke="#1f231f" stroke-linecap="round" stroke-linejoin="round" stroke-width="2" d="m3.50982,106.48082s21.58078-29.10652,50.5249-35.31299" class="colorStroke231f20 svgStroke"/><path fill="none" stroke="#1f231f" stroke-linecap="round" stroke-linejoin="round" stroke-width="2" d="m118.82695,1.12773s-17.01313,51.75583-16.84812,69.83364" class="colorStroke231f20 svgStroke"/><path fill="none" stroke="#1f231f" stroke-linecap="round" stroke-linejoin="round" stroke-width="2" d="m182.97883,103.96137s-13.3543-27.60226-41.67715-19.30113" class="colorStroke231f20 svgStroke"/></symbol><symbol id="i" viewBox="0 0 472.374 487.902"><line x1="470.878" x2="439.232" y1="487.794" y2="49.599" fill="none" stroke="#1f231f" stroke-miterlimit="10" stroke-width="3" class="colorStroke231f20 svgStroke"/><line x1="32.721" x2="2.222" y1="49.599" y2="480.794" fill="none" stroke="#1f231f" stroke-miterlimit="10" stroke-width="3" class="colorStroke231f20 svgStroke"/><rect width="230.604" height="59.512" x="1" y="1" fill="#eeffef" stroke="#1f231f" stroke-linecap="round" stroke-linejoin="round" stroke-width="2" class="colorffeef3 svgShape colorStroke231f20 svgStroke"/><rect width="239.536" height="59.512" x="231.173" y="1" fill="#eeffef" stroke="#1f231f" stroke-linecap="round" stroke-linejoin="round" stroke-width="2" class="colorffeef3 svgShape colorStroke231f20 svgStroke"/><circle cx="111.539" cy="28.936" r="7" fill="#eeffef" stroke="#1f231f" stroke-linecap="round" stroke-linejoin="round" stroke-width="2" class="colorffeef3 svgShape colorStroke231f20 svgStroke"/><circle cx="351.539" cy="28.936" r="7" fill="#eeffef" stroke="#1f231f" stroke-linecap="round" stroke-linejoin="round" stroke-width="2" class="colorffeef3 svgShape colorStroke231f20 svgStroke"/></symbol><symbol id="e" viewBox="0 0 140 166.598"><path fill="#a3ffa7" d="m100.98013,119.77919l-3.14572,45.80756-45.34358,1.01083,5.32912-61.85482c11.18666-7.27197,37.40265-7.14518,43.16017,15.03644Z" class="colorffbea3 svgShape"/><path fill="#27c12e" d="m119.25235,45.4909s-8.63738-26.35516-47.36322-18.42028c-38.72584,7.93489-47.33952,58.29608-34.52583,73.37125,12.8137,15.07518,19.63669,19.55813,19.63669,19.55813l19.46972.58894,39.5543-56.48645,3.22832-18.61159Z" class="color3d27c1 svgShape"/><path fill="#a3ffa7" d="m129.79193,76.1441s9.29792-1.18076,10.15216,3.92024c.85425,5.101-8.36457,8.6702-8.36457,8.6702l-1.78759-12.59044Z" class="colorffbea3 svgShape"/><path fill="#a3ffa7" d="m57,120s15.81477.69964,20.2804-2.61675c4.46563-3.31639,13.7226-18.36085,13.7226-18.36085l.14128.00634c-9.64655-5.86324-13.27075-22.32478-6.59536-26.39241,9.30153-5.66772,18.41388,3.21193,18.41388,3.21193,8.05728-5.53707,13.46842-14.13218,14.95946-23.76373l1.17573-7.59819s11.39043,24.5606,14.61747,52.14365c3.22764,27.58334-24.71546,37.37002-36.25839,37.59629-18.46973.36205-40.45707-14.22627-40.45707-14.22627Z" class="colorffbea3 svgShape"/><path fill="none" stroke="#1f231f" stroke-linecap="round" stroke-linejoin="round" stroke-width="2.571" d="m101.40809,90.64419s-5.88481-9.82415-14.04761-10.57985" class="colorStroke231f20 svgStroke"/><line x1="95.194" x2="91.157" y1="83.59" y2="90.644" fill="none" stroke="#1f231f" stroke-linecap="round" stroke-linejoin="round" stroke-width="2.571" class="colorStroke231f20 svgStroke"/><line x1="121.359" x2="120.807" y1="80.064" y2="77.973" fill="none" stroke="#1f231f" stroke-linecap="round" stroke-linejoin="round" stroke-width="2.571" class="colorStroke231f20 svgStroke"/><ellipse cx="34.787" cy="34.62" fill="#27c12e" class="color3d27c1 svgShape" rx="34.787" ry="34.62"/><path fill="none" stroke="#1f231f" stroke-linecap="round" stroke-linejoin="round" stroke-width="2.571" d="m34.78653,69.24078c19.21207,0,34.78653-15.50008,34.78653-34.62039" class="colorStroke231f20 svgStroke"/></symbol><symbol id="f" viewBox="0 0 483.214 397.097"><path fill="#e5ffe6" d="m323.36417,16.85136c1.14855,1.36389,2.01645,2.566,2.46506,3.46843,3.50262,7.11722,64.48597,146.88501,64.48597,146.88501l-57.37481,20.63359-13.63169-32.33371-12.5762,121.05605-49.73591-11.67899v-.16895s49.6935,11.67899,49.6935,11.67899c0,0,17.93616-175.73402,16.90219-186.7372-.98121-10.66231-4.91725-19.39102-15.85324-24.91848,12.54792-11.85591,19.006-30.92931,15.62514-47.88474Z" class="colore5edff svgShape"/><path fill="#e5ffe6" d="m87.21416,9.0976c10.19217-2.17533,210-8,210-8,8.71175,1.89402,21.19668,9.87138,26.15001,15.75375,3.38086,16.95543-3.07721,36.02883-15.62514,47.88474-.34986-.17673-.68474-.36015-1.04895-.53031,0,0-26.3767-6.54708-41.84379,5.84997-15.10879,12.08033-156.30569,75.19238-238.63214,44.04184C-10.78584,100.0976,2.21416,12.0976,2.21416,12.0976c0,0,74.80783-.80363,85-3Z" class="colore5edff svgShape"/><path fill="#a3ffa7" d="m337.5656,186.10428l39.863-14.26337,10.4591,40.89063c-11.68045,4.63569-23.91122,6.64414-36.41947,7.32503l-13.90263-33.95229Z" class="colorffbea3 svgShape"/><path fill="#a3ffa7" d="m257.95586,289.96813l4.12088-24.20107,36.1728,9.19388-4.63766,26.56074c-18.7857.95903-32.22832.41774-35.65603-11.55355Z" class="colorffbea3 svgShape"/><path fill="#27c12e" d="m293.61188,301.52168s1.17746,27.28323,18.19613,44.78398c17.01888,17.50075,28.74238,28.12758,35.47751,30.55483,6.73513,2.42725,7.74188,1.10961,13.51183,6.57593,1.29077,1.9377,2.85797,6.73559,2.85797,6.73559l-37.11202-2.2566-80.15394-35.29675,11.5665-62.09677c3.40703,6.05893,12.58738,14.39389,35.65603,10.9998Z" class="color3d27c1 svgShape"/><path fill="#27c12e" d="m387.8877,212.73154s7.6541,26.20783,38.18038,34.14723c30.52628,7.93918,46.42616,8.11912,54.47169,22.82684,0,0-28.87679.15818-53.61117,1.16304-23.58478.95797-52.07035,5.23485-52.07035,5.23485l-23.94055-56.04693s22.68481,1.35248,36.97001-7.32503Z" class="color3d27c1 svgShape"/><path fill="#e5ffe6" d="m480.53977,269.7056l2.67439,6.49736s-39.60367.77107-59.52884,2.9622c-19.92496,2.19113-44.58443,5.36516-44.58443,5.36516,0,0-5.39878-7.19599-4.46695-8.32736,3.61825-3.01838,82.04125-8.16389,105.90583-6.49736Z" class="colore5edff svgShape"/><polygon fill="#e5ffe6" points="363.519 390.441 363.655 397.097 325.515 397.097 243.736 366.49 246.333 352.705 326.546 387.468 363.519 390.441" class="colore5edff svgShape"/><path fill="#e5ffe6" d="m322.68196,83.78192c.42815,1.88216.72335,3.84182.91031,5.87265,1.03397,11.00318-16.90219,186.7372-16.90219,186.7372l-49.6935-11.67899-.0633-.02112s0-3.9282,0-10.53855c-.04199-22.47098-.16881-75.88179-.75965-110.28519v-.21119c-.18991-11.25661-.42203-20.46464-.73855-25.85007.40114-.63358.54864-1.14044.48533-1.56283h-.0211c-.04642-.33538-.28255-.57909-.60097-.78332,20.18641-12.20212,60.02472-13.36094,67.38361-31.67859Z" class="colore5edff svgShape"/><path fill="#e5ffe6" d="m264.8463,70.05577c15.46709-12.39705,41.84379-5.84997,41.84379-5.84997,9.58445,4.47755,14.1012,11.25954,15.99188,19.57613-7.35889,18.31765-47.1972,19.47647-67.38361,31.67859-3.45218-2.21394-166.91231,5.4618-182.08419,7.63709-2.59129-13.8667,176.52335-40.96151,191.63214-53.04184Z" class="colore5edff svgShape"/><path fill="none" stroke="#1f231f" stroke-linecap="round" stroke-linejoin="round" stroke-width="2" d="m131.22225,118.89212s105.10337-40.2486,121.22167-47.84015c16.98916-8.00171,40.91559-17.43422,60.93196-2.71583,20.01638,14.71839,2.38235,124.19295,2.38235,124.19295l-8.33698,83.93386-50.48058-11.76727-1.03038-148.95111s-1.42126-4.23595-3.94286-8.46085-2.8857-7.55287-.20525-10.38985" class="colorStroke231f20 svgStroke"/><path fill="none" stroke="#1f231f" stroke-linecap="round" stroke-linejoin="round" stroke-width="2" d="m256.50598,103.81742s-1.7476-10.39999,8.08815-11.08047" class="colorStroke231f20 svgStroke"/><path fill="none" stroke="#1f231f" stroke-linecap="round" stroke-linejoin="round" stroke-width="2" d="m126.22225,119.89212s111.16845-6.46501,129.68805-4.14756" class="colorStroke231f20 svgStroke"/><path fill="none" stroke="#1f231f" stroke-linecap="round" stroke-linejoin="round" stroke-width="2" d="m320.40055,158.07056l12.72765,30.28715,56.14123-21.75862s-48.88365-116.4916-58.37658-135.02555c0,0-6.28915-30.21518-38.65575-30.55815-32.36659-.34297-147.02293,5.08221-147.02293,5.08221" class="colorStroke231f20 svgStroke"/><line x1="328.244" x2="384.36" y1="176.561" y2="157.07" fill="none" stroke="#1f231f" stroke-linecap="round" stroke-linejoin="round" stroke-width="2" class="colorStroke231f20 svgStroke"/><line x1="257.12" x2="307.8" y1="252.633" y2="265.444" fill="none" stroke="#1f231f" stroke-linecap="round" stroke-linejoin="round" stroke-width="2" class="colorStroke231f20 svgStroke"/><path fill="none" stroke="#1f231f" stroke-linecap="round" stroke-linejoin="round" stroke-width="2" d="m374.63394,276.20297s63.17453-9.8869,105.90583-6.49736" class="colorStroke231f20 svgStroke"/><path fill="none" stroke="#1f231f" stroke-linecap="round" stroke-linejoin="round" stroke-width="2" d="m350.9177,220.05657s25.50755,4.32676,36.97001-7.32503" class="colorStroke231f20 svgStroke"/><polyline fill="none" stroke="#231f20" stroke-linecap="round" stroke-linejoin="round" stroke-width="2" points="246.333 352.705 326.546 387.468 363.519 390.441"/><path fill="none" stroke="#1f231f" stroke-linecap="round" stroke-linejoin="round" stroke-width="2" d="m257.95586,290.52188s5.86928,16.42143,35.65603,10.9998" class="colorStroke231f20 svgStroke"/></symbol><symbol id="g" viewBox="0 0 412.157 275.436"><path fill="#2eff37" d="m144.39751,164.83908l51.63587-51.83729s-11.80785-15.88765-26.93395-34.15244c-24.92221-30.09684-61.55353-67.19385-89.14256-54.32178-44.33089,20.68545,5.92767,67.64842,5.92767,67.64842l58.51296,72.66309Z" class="colorffd12e svgShape"/><path fill="#2eff37" d="m154.22442,109.48793l-4.31623,34.79102s-2.20529,14.35883-6.70781,25.19653c-4.50055,10.83748-10.20984,22.40596-10.20984,22.40596,0,0,6.61076,16.76903,13.57577,20.71217,6.96501,3.94336,8.58084,3.94555,8.58084,3.94555,0,0,6.26868,4.44898,1.61166,14.89671-4.65702,10.44532-7.55007,13.57867-7.55007,13.57867,0,0-30.64266,17.49436-62.1805,25.44098-31.53587,7.94662-55,4-55,4,0,0-10.54995-2.67693-18.94228-8.46742-8.39036-5.78852-17.14048-14.32067-11.05772-16.53258,22-8,14.51266-154.53797,38-225,13-39,61.58948-18.55413,74.16744-7.37364,12.57555,11.18048,27.6823,25.31415,27.6823,25.31415l12.34644,67.09191Z" class="colorffd12e svgShape"/><path fill="#a3ffa7" d="m405.25345,145.51161l1.94266,11.29811s-3.05507,2.21175-5.63533-.51089c-2.27309-2.39853-1.88602-4.67099-3.25205-9.45644-1.34656-4.78513-2.02303-5.6329-9.45304-8.87143-6.15232-2.68162-17.17484,2.16648-17.17484,2.16648,0,0,3.7789,4.66011,5.43857,6.58954,1.87862,2.18396,1.00124,5.82334-1.4369,6.14807-2.41706.29887-14.69898-6.94386-21.08118-13.23768-4.88486-4.81722-5.76731-5.81205-5.76731-5.81205,0,0-.43642.07449-1.1926-.01802-14.78924-1.81561-10.93444-19.09134-10.93444-19.09134,6.73803-5.79051,11.665-8.40605,18.66655-7.36446,4.0264.60015,17.90437,11.16196,17.90437,11.16196l26.71231,5.54359s4.31891,1.83347,6.06085,2.96503c1.72026,1.13389,5.13498,10.63738,5.02059,15.16891s-5.81822,3.32063-5.81822,3.32063Z" class="colorffbea3 svgShape"/><path fill="#a3ffa7" d="m352.17434,129.02707c-.52923-.24982-1.37701-.41892-2.75435-.16515-3.11456.61038-23.89584,1.2484-46.37505,8.79915-17.8601,6.03302-80.37145,42.33178-94.38072,44.10721-5.04943.64649-7.74711-.65243-9.81373-2.17866,0,0,.00331-53.19111,20.50381-55.89492,21.68402-2.85991,103.7222-16.64006,123.28457-16.34061,5.88485.10061,10.78891.09639,14.90962.3385l-5.37416,21.33448Z" class="colorffbea3 svgShape"/><path fill="none" stroke="#1f231f" stroke-linecap="round" stroke-linejoin="round" d="m152.02824,102.45551s2.48087,40.79903-10.25957,70.39952" class="colorStroke231f20 svgStroke"/><path fill="#a3ffa7" d="m206.02824,181.45551c-15.67564,6.57831-86.1029-60.89562-86.1029-60.89562l42.1029-46.10438s52.45137,45.56702,53,46c28.6275,22.66533-9,61-9,61Z" class="colorffbea3 svgShape"/><path fill="#2eff37" d="m132.18966,143.11102l52.83858-59.65551S105.42104-18.86451,64.26405,4.45672C6.02824,37.45551,132.18966,143.11102,132.18966,143.11102Z" class="colorffd12e svgShape"/><path fill="none" stroke="#1f231f" stroke-linecap="round" stroke-linejoin="round" stroke-width="2" d="m77.30576,87.3069c24.13071,30.04947,54.88389,55.80412,54.88389,55.80412l52.83858-59.65551S105.42104-18.86451,64.26405,4.45672" class="colorStroke231f20 svgStroke"/><path fill="none" stroke="#1f231f" stroke-linecap="round" stroke-linejoin="round" stroke-width="2" d="m335.35421,129.99656s8.08442-1.41022,14.71346,4.57957c6.62904,5.98979,20.98167,6.32478,27.50495,3.90558,6.52328-2.4192,7.92251-2.02546,11.79523-.72559,3.87272,1.29987,9.14743,6.88255,8.95588,10.66734s2.84493,12.64738,8.89188,8.43825c-1.68617-5.30401-4.1389-19.31445-4.53213-23.43708s-18.1078-6.77286-23.8642-10.79638-16.54777-13.58166-22.80334-15.10596-30.59363.17276-30.59363.17276l-116.89407,18.26046" class="colorStroke231f20 svgStroke"/><path fill="none" stroke="#1f231f" stroke-linecap="round" stroke-linejoin="round" stroke-width="2" d="m350.67891,135.35639s18.49748,17.87203,24.91889,17.72205c6.42141-.14998,1.02773-8.7946-3.50098-12.34892" class="colorStroke231f20 svgStroke"/><path fill="none" stroke="#1f231f" stroke-linecap="round" stroke-linejoin="round" stroke-width="2" d="m374.69801,119.24018s22.86176,4.59483,28.11158,5.49964,7.07162,13.09802,8.08204,15.80815-.83433,6.16817-5.99458,4.69257" class="colorStroke231f20 svgStroke"/><path fill="none" stroke="#1f231f" stroke-linecap="round" stroke-linejoin="round" stroke-width="2" d="m120.92917,188.72899s-17.78604,9.72291-34.34348,12.72472-35.67269,9.04705-29.61507,11.52443c6.05762,2.47738,50.99102-6.32241,63.27715-7.0958,6.78047-.42682-19.12507,29.26322-25.6723,21.4182" class="colorStroke231f20 svgStroke"/></symbol></defs><use width="445.132" height="325.354" class="color000000 svgShape" transform="translate(367.933 106.935) scale(1.54937)" xlink:href="#a"/><use width="163.034" height="177.382" class="color000000 svgShape" transform="translate(1032 135.069) scale(.80352)" xlink:href="#b"/><use width="188.299" height="185.269" class="color000000 svgShape" transform="translate(463 747.296) scale(1.46049)" xlink:href="#c"/><use width="292.283" height="138.273" class="color000000 svgShape" transform="matrix(-.99903 0 0 1.00526 1108.032 397.98)" xlink:href="#d"/><use width="140" height="166.598" class="color000000 svgShape" transform="matrix(-1 0 0 .99641 1386.032 202)" xlink:href="#e"/><use width="483.214" height="397.097" class="color000000 svgShape" transform="matrix(-.99956 0 0 1.00227 1378.032 587.997)" xlink:href="#f"/><use width="412.157" height="275.436" class="color000000 svgShape" transform="matrix(-.99962 0 0 1.00205 1387.025 350.997)" xlink:href="#g"/><use width="322.286" height="591.114" class="color000000 svgShape" transform="matrix(-.99911 0 0 .99981 1456.032 408)" xlink:href="#h"/><use width="472.374" height="487.902" class="color000000 svgShape" transform="translate(711.992 536.001)" xlink:href="#i"/></svg>